<svg width="212" height="53" viewBox="0 0 212 53" fill="none" xmlns="http://www.w3.org/2000/svg">
<g clip-path="url(#clip0_2942_235)">
<path d="M41.3125 18.4154C42.4912 18.4154 43.4411 19.3779 43.4411 20.5468V29.405L50.6279 29.4508H51.4748C51.6121 28.3851 51.6808 27.3079 51.6808 26.1963C51.6808 11.7345 39.9621 0 25.5083 0C13.7668 0 3.83341 7.74659 0.514648 18.4154H41.3125Z" fill="#3B8B87"/>
<path d="M50.7198 33.0604H49.9988L49.4953 30.9518L43.1782 30.9174C42.812 31.5821 42.1139 32.029 41.3128 32.029H29.5141C29.5141 27.4223 25.7833 23.6865 21.1828 23.6865C16.5823 23.6865 12.8516 27.4223 12.8516 32.029H0C2.64356 43.6947 13.0576 52.4154 25.5087 52.4154C39.0469 52.4154 48.328 42.5946 50.7083 33.0718L50.7198 33.0604ZM21.1943 38.9161C17.3949 38.9161 14.3164 35.8336 14.3164 32.029C14.3164 28.2245 17.3949 25.1419 21.1943 25.1419C24.9937 25.1419 28.0721 28.2245 28.0721 32.029C28.0721 35.8336 24.9937 38.9161 21.1943 38.9161Z" fill="#ED7B45"/>
<path d="M58.0098 12.4106H65.9977C69.4995 12.4106 72.1431 12.9263 73.9169 13.9577C75.6907 14.989 76.5719 16.7538 76.5719 19.2634C76.5719 20.3291 76.3774 21.2917 75.9883 22.1283C75.5992 22.9763 75.027 23.6638 74.2946 24.2253C73.5622 24.7869 72.6466 25.1536 71.5595 25.3598V25.5432C72.6924 25.7265 73.6995 26.0703 74.5807 26.5631C75.4619 27.0558 76.1599 27.7434 76.6635 28.6487C77.167 29.554 77.4302 30.6999 77.4302 32.1095C77.4302 33.794 77.0297 35.2264 76.2401 36.4068C75.4504 37.5871 74.3289 38.4809 72.8755 39.0883C71.4221 39.6956 69.7055 40.005 67.7028 40.005H58.0098V12.4106ZM61.8778 24.0191H66.6843C68.9045 24.0191 70.4494 23.6524 71.2962 22.919C72.1545 22.1856 72.578 21.1313 72.578 19.7332C72.578 18.3352 72.0744 17.2465 71.0559 16.6048C70.0374 15.9745 68.4238 15.6537 66.2151 15.6537H61.8778V24.0191ZM61.8778 27.2048V36.7391H67.1421C69.4194 36.7391 71.0216 36.2922 71.96 35.3983C72.8984 34.5045 73.3676 33.3012 73.3676 31.7886C73.3676 30.8375 73.1616 30.0124 72.7382 29.3248C72.3148 28.6372 71.6396 28.1101 70.6897 27.7434C69.7513 27.3767 68.481 27.1933 66.8789 27.1933H61.8893L61.8778 27.2048Z" fill="#3B8B87"/>
<path d="M100.364 19.2058V40.0047H97.3313L96.8048 37.1513H96.5989C96.1754 37.8733 95.6147 38.4691 94.9395 38.939C94.2643 39.4203 93.4975 39.7755 92.6621 40.0162C91.8153 40.2568 90.9226 40.3714 89.9842 40.3714C88.3935 40.3714 87.0317 40.1079 85.9216 39.5807C84.8115 39.0536 83.9647 38.2285 83.3925 37.1169C82.8203 36.0054 82.5342 34.5615 82.5342 32.8082V19.1943H86.345V32.2696C86.345 33.9427 86.7112 35.1917 87.4322 36.0283C88.1532 36.8648 89.2632 37.2774 90.7395 37.2774C92.2158 37.2774 93.3259 36.9909 94.1842 36.4179C95.031 35.8449 95.6376 35.0084 96.0152 33.9083C96.3814 32.8082 96.576 31.456 96.576 29.8631V19.1943H100.387L100.364 19.2058Z" fill="#3B8B87"/>
<path d="M124.465 19.2058V40.0047H121.433L120.906 37.1513H120.7C120.277 37.8733 119.716 38.4691 119.041 38.939C118.366 39.4203 117.599 39.7755 116.764 40.0162C115.917 40.2568 115.024 40.3714 114.086 40.3714C112.495 40.3714 111.133 40.1079 110.023 39.5807C108.913 39.0536 108.066 38.2285 107.494 37.1169C106.922 36.0054 106.636 34.5615 106.636 32.8082V19.1943H110.447V32.2696C110.447 33.9427 110.813 35.1917 111.534 36.0283C112.255 36.8648 113.365 37.2774 114.841 37.2774C116.317 37.2774 117.427 36.9909 118.286 36.4179C119.133 35.8449 119.739 35.0084 120.117 33.9083C120.483 32.8082 120.678 31.456 120.678 29.8631V19.1943H124.488L124.465 19.2058Z" fill="#3B8B87"/>
<path d="M140.921 18.8276C141.299 18.8276 141.711 18.8506 142.146 18.8964C142.581 18.9422 142.958 18.9995 143.279 19.0568L142.878 22.5863C142.581 22.5061 142.226 22.4488 141.837 22.403C141.448 22.3571 141.07 22.3228 140.738 22.3228C139.937 22.3228 139.17 22.4717 138.438 22.7811C137.706 23.0906 137.065 23.526 136.515 24.099C135.966 24.672 135.531 25.371 135.211 26.1961C134.89 27.0212 134.742 27.9608 134.742 29.0151V40.0162H130.931V19.2058H133.986L134.444 22.9645H134.616C135.039 22.2082 135.565 21.5206 136.172 20.8903C136.779 20.2601 137.488 19.7673 138.278 19.3892C139.067 19.011 139.96 18.8276 140.921 18.8276Z" fill="#3B8B87"/>
<path d="M147.616 12.4106H155.604C159.106 12.4106 161.75 12.9263 163.523 13.9577C165.297 14.989 166.178 16.7538 166.178 19.2634C166.178 20.3291 165.984 21.2917 165.595 22.1283C165.206 22.9763 164.633 23.6638 163.901 24.2253C163.169 24.7869 162.253 25.1536 161.166 25.3598V25.5432C162.299 25.7265 163.306 26.0703 164.187 26.5631C165.068 27.0558 165.766 27.7434 166.27 28.6487C166.773 29.554 167.037 30.6999 167.037 32.1095C167.037 33.794 166.636 35.2264 165.846 36.4068C165.057 37.5871 163.935 38.4809 162.482 39.0883C161.029 39.6956 159.312 40.005 157.309 40.005H147.616V12.4106ZM151.484 24.0191H156.291C158.511 24.0191 160.056 23.6524 160.903 22.919C161.761 22.1856 162.184 21.1313 162.184 19.7332C162.184 18.3352 161.681 17.2465 160.662 16.6048C159.644 15.9745 158.03 15.6537 155.822 15.6537H151.484V24.0191ZM151.484 27.2048V36.7391H156.749C159.026 36.7391 160.628 36.2922 161.566 35.3983C162.505 34.5045 162.974 33.3012 162.974 31.7886C162.974 30.8375 162.768 30.0124 162.345 29.3248C161.921 28.6372 161.246 28.1101 160.296 27.7434C159.358 27.3767 158.087 27.1933 156.485 27.1933H151.496L151.484 27.2048Z" fill="#ED7B45"/>
<path d="M180.277 18.8506C182.841 18.8506 184.752 19.4236 186.022 20.558C187.292 21.6925 187.922 23.4917 187.922 25.944V40.0047H185.21L184.477 36.9795H184.328C183.745 37.7358 183.15 38.366 182.52 38.8703C181.891 39.3745 181.17 39.7526 180.346 40.0047C179.522 40.2569 178.515 40.3829 177.336 40.3829C176.077 40.3829 174.967 40.1537 173.983 39.7068C172.999 39.2599 172.232 38.5723 171.671 37.6556C171.111 36.7388 170.836 35.5814 170.836 34.1719C170.836 32.0519 171.648 30.459 173.262 29.3589C174.876 28.2588 177.336 27.6629 180.632 27.5712L184.214 27.4223V26.2534C184.214 24.6262 183.848 23.4802 183.127 22.8156C182.406 22.1509 181.399 21.8186 180.106 21.8186C179.041 21.8186 178.011 21.979 177.027 22.277C176.043 22.5864 175.105 22.9531 174.2 23.3771L172.999 20.6268C173.983 20.1226 175.093 19.6986 176.34 19.3663C177.588 19.0225 178.904 18.862 180.266 18.862L180.277 18.8506ZM184.18 29.909L181.273 30.0465C178.87 30.1382 177.187 30.5392 176.215 31.2497C175.242 31.9602 174.75 32.9572 174.75 34.2177C174.75 35.3293 175.082 36.1314 175.745 36.6471C176.409 37.1628 177.29 37.4264 178.389 37.4264C180.071 37.4264 181.456 36.9565 182.543 36.0054C183.63 35.0543 184.168 33.6447 184.168 31.7883V29.9204L184.18 29.909Z" fill="#ED7B45"/>
<path d="M198.016 10.6343V25.3597C198.016 25.9441 197.993 26.5973 197.947 27.3307C197.902 28.0641 197.867 28.7402 197.821 29.359H197.959C198.245 28.9809 198.634 28.4881 199.115 27.8693C199.595 27.2505 200.03 26.7348 200.408 26.2994L207.045 19.206H211.417L203.086 28.1329L212.001 40.0049H207.515L200.522 30.5164L198.016 32.7396V40.0049H194.251V10.6343H198.016Z" fill="#ED7B45"/>
</g>
<defs>
<clipPath id="clip0_2942_235">
<rect width="212" height="53" fill="white"/>
</clipPath>
</defs>
</svg>
