<svg width="220" height="169" viewBox="0 0 220 169" fill="none" xmlns="http://www.w3.org/2000/svg">
<g clip-path="url(#clip0_2942_1235)">
<path d="M141.605 37.9627C144 37.9627 145.971 39.9152 145.971 42.3147V60.3345L160.652 60.4168H162.387C162.658 58.2526 162.812 56.053 162.812 53.8064C162.812 24.3656 138.867 0.5 109.328 0.5C85.3242 0.5 65.0141 16.2614 58.252 37.9627H141.605Z" fill="#3B8B87"/>
<path d="M160.829 67.7448H159.353L158.315 63.4516L145.404 63.3693C144.661 64.7101 143.245 65.6394 141.604 65.6394H117.506C117.506 56.2766 109.894 48.6782 100.488 48.6782C91.0828 48.6782 83.471 56.2649 83.471 65.6394H57.1895C62.5945 89.3756 83.8722 107.101 109.328 107.101C136.99 107.101 155.955 87.1172 160.829 67.7448C160.829 67.7566 160.829 67.733 160.829 67.7448ZM100.488 79.66C92.7232 79.66 86.4213 73.3789 86.4213 65.6394C86.4213 57.8998 92.7232 51.6188 100.488 51.6188C108.254 51.6188 114.556 57.8998 114.556 65.6394C114.556 73.3789 108.254 79.66 100.488 79.66Z" fill="#ED7B45"/>
<path d="M0 112.241H11.4119C16.4156 112.241 20.192 112.97 22.7175 114.441C25.243 115.911 26.5175 118.428 26.5175 121.98C26.5175 123.498 26.2343 124.862 25.6796 126.062C25.125 127.262 24.3107 128.25 23.2604 129.038C22.2101 129.826 20.9001 130.367 19.3541 130.649V130.92C20.9709 131.19 22.4107 131.672 23.6616 132.366C24.9126 133.06 25.9157 134.048 26.6355 135.33C27.3554 136.613 27.7213 138.248 27.7213 140.259C27.7213 142.658 27.1548 144.693 26.0219 146.363C24.889 148.034 23.284 149.304 21.2188 150.174C19.1417 151.045 16.687 151.48 13.8311 151.48H0V112.241ZM5.52301 128.744H12.3914C15.5659 128.744 17.7728 128.226 18.9883 127.191C20.2038 126.156 20.8175 124.639 20.8175 122.651C20.8175 120.663 20.0858 119.11 18.6343 118.205C17.1827 117.299 14.8696 116.852 11.7187 116.852H5.52301V128.744ZM5.52301 133.284V146.834H13.0404C16.2858 146.834 18.5871 146.199 19.9206 144.928C21.2542 143.658 21.9268 141.953 21.9268 139.8C21.9268 138.436 21.62 137.271 21.0181 136.295C20.4163 135.319 19.4486 134.578 18.0914 134.048C16.7461 133.531 14.9287 133.272 12.651 133.272H5.52301V133.284Z" fill="#3B8B87"/>
<path d="M60.5054 121.898V151.48H56.1743L55.419 147.422H55.124C54.5103 148.445 53.7196 149.292 52.7519 149.974C51.7842 150.657 50.6985 151.162 49.4948 151.503C48.291 151.845 47.0165 152.009 45.6711 152.009C43.3935 152.009 41.4581 151.633 39.8649 150.88C38.2717 150.127 37.068 148.963 36.2537 147.375C35.4394 145.787 35.0264 143.74 35.0264 141.247V121.898H40.4668V140.494C40.4668 142.87 40.986 144.658 42.0127 145.834C43.0513 147.01 44.6208 147.61 46.7333 147.61C48.8457 147.61 50.4389 147.21 51.6544 146.387C52.8699 145.575 53.7314 144.387 54.2625 142.823C54.7936 141.259 55.0532 139.341 55.0532 137.059V121.898H60.4936H60.5054Z" fill="#3B8B87"/>
<path d="M94.9536 121.898V151.48H90.6226L89.8673 147.422H89.5722C88.9586 148.445 88.1679 149.292 87.2002 149.974C86.2325 150.657 85.1467 151.162 83.943 151.503C82.7393 151.845 81.4647 152.009 80.1194 152.009C77.8417 152.009 75.9063 151.633 74.3131 150.88C72.72 150.127 71.5162 148.963 70.7019 147.375C69.8877 145.787 69.4746 143.74 69.4746 141.247V121.898H74.915V140.494C74.915 142.87 75.4343 144.658 76.461 145.834C77.4995 147.01 79.0691 147.61 81.1815 147.61C83.2939 147.61 84.8871 147.21 86.1027 146.387C87.3182 145.575 88.1797 144.387 88.7107 142.823C89.2418 141.259 89.5014 139.341 89.5014 137.059V121.898H94.9418H94.9536Z" fill="#3B8B87"/>
<path d="M118.461 121.357C119.004 121.357 119.582 121.392 120.208 121.451C120.833 121.51 121.376 121.592 121.825 121.675L121.258 126.697C120.833 126.591 120.326 126.497 119.759 126.426C119.193 126.356 118.674 126.321 118.19 126.321C117.045 126.321 115.947 126.532 114.909 126.968C113.87 127.403 112.95 128.014 112.159 128.838C111.369 129.649 110.755 130.649 110.306 131.814C109.858 132.99 109.634 134.319 109.634 135.824V151.468H104.193V121.886H108.56L109.209 127.226H109.445C110.059 126.156 110.802 125.168 111.664 124.274C112.537 123.38 113.54 122.674 114.673 122.145C115.806 121.616 117.069 121.357 118.461 121.357Z" fill="#3B8B87"/>
<path d="M128.009 112.241H139.421C144.424 112.241 148.201 112.97 150.726 114.441C153.252 115.911 154.526 118.428 154.526 121.98C154.526 123.498 154.243 124.862 153.689 126.062C153.134 127.262 152.32 128.25 151.269 129.038C150.219 129.826 148.909 130.367 147.363 130.649V130.92C148.98 131.19 150.42 131.672 151.671 132.366C152.921 133.06 153.925 134.048 154.644 135.33C155.364 136.613 155.73 138.248 155.73 140.259C155.73 142.658 155.164 144.693 154.031 146.363C152.898 148.034 151.293 149.304 149.228 150.174C147.151 151.045 144.696 151.48 141.84 151.48H127.997V112.241H128.009ZM133.532 128.744H140.4C143.575 128.744 145.782 128.226 146.997 127.191C148.213 126.156 148.826 124.639 148.826 122.651C148.826 120.663 148.095 119.11 146.643 118.205C145.192 117.299 142.879 116.852 139.728 116.852H133.532V128.744ZM133.532 133.284V146.834H141.049C144.295 146.834 146.596 146.199 147.929 144.928C149.263 143.658 149.936 141.953 149.936 139.8C149.936 138.436 149.629 137.271 149.027 136.295C148.425 135.319 147.457 134.578 146.1 134.048C144.755 133.531 142.938 133.272 140.66 133.272H133.52L133.532 133.284Z" fill="#ED7B45"/>
<path d="M174.683 121.393C178.342 121.393 181.08 122.204 182.897 123.827C184.714 125.451 185.623 128.003 185.623 131.485V151.48H181.74L180.69 147.187H180.478C179.652 148.258 178.79 149.151 177.893 149.869C176.996 150.586 175.958 151.116 174.778 151.48C173.598 151.845 172.17 152.021 170.482 152.021C168.688 152.021 167.095 151.704 165.691 151.057C164.286 150.41 163.189 149.446 162.386 148.14C161.584 146.846 161.194 145.188 161.194 143.188C161.194 140.177 162.351 137.895 164.664 136.342C166.977 134.79 170.494 133.931 175.191 133.79L180.312 133.578V131.92C180.312 129.614 179.793 127.979 178.766 127.038C177.74 126.086 176.288 125.615 174.447 125.615C172.925 125.615 171.461 125.839 170.057 126.274C168.653 126.709 167.307 127.238 166.021 127.838L164.298 123.921C165.702 123.204 167.296 122.604 169.078 122.122C170.86 121.64 172.736 121.393 174.695 121.393H174.683ZM180.253 137.119L176.111 137.307C172.677 137.436 170.27 138.001 168.877 139.012C167.484 140.024 166.788 141.435 166.788 143.235C166.788 144.811 167.26 145.964 168.216 146.693C169.172 147.422 170.423 147.799 171.981 147.799C174.388 147.799 176.371 147.128 177.917 145.776C179.463 144.423 180.242 142.423 180.242 139.777V137.119H180.253Z" fill="#ED7B45"/>
<path d="M200.02 109.712V130.649C200.02 131.473 199.985 132.402 199.926 133.449C199.867 134.495 199.808 135.46 199.749 136.33H199.938C200.351 135.789 200.905 135.084 201.59 134.213C202.286 133.343 202.9 132.59 203.431 131.99L212.907 121.898H219.15L207.243 134.59L219.976 151.468H213.568L203.572 137.965L199.997 141.129V151.457H194.615V109.701H199.997L200.02 109.712Z" fill="#ED7B45"/>
<path d="M46.6624 163.819C46.6624 165.289 46.2612 166.418 45.4587 167.206C44.6562 167.983 43.4997 168.383 41.9891 168.383H39.499V159.443H42.2487C43.6413 159.443 44.727 159.832 45.5059 160.596C46.2848 161.361 46.6624 162.443 46.6624 163.831V163.819ZM45.5531 163.854C45.5531 162.69 45.2581 161.808 44.668 161.219C44.0779 160.631 43.2046 160.337 42.0481 160.337H40.5375V167.477H41.8121C43.0512 167.477 43.9953 167.171 44.6208 166.559C45.2463 165.948 45.5649 165.042 45.5649 163.854H45.5531Z" fill="#3B8B87"/>
<path d="M49.4711 161.678V166.03C49.4711 166.571 49.6009 166.983 49.8488 167.253C50.0966 167.524 50.486 167.653 51.0171 167.653C51.7252 167.653 52.2326 167.465 52.5631 167.077C52.8935 166.688 53.0469 166.065 53.0469 165.195V161.666H54.0618V168.37H53.2239L53.0823 167.477H53.0233C52.8109 167.806 52.5277 168.065 52.15 168.241C51.7842 168.418 51.3593 168.5 50.8873 168.5C50.073 168.5 49.4593 168.312 49.0463 167.924C48.6332 167.535 48.4326 166.912 48.4326 166.065V161.678H49.4593H49.4711Z" fill="#3B8B87"/>
<path d="M57.1772 161.678V166.03C57.1772 166.571 57.307 166.983 57.5548 167.253C57.8027 167.524 58.1921 167.653 58.7232 167.653C59.4312 167.653 59.9387 167.465 60.2691 167.077C60.5996 166.688 60.753 166.065 60.753 165.195V161.666H61.7679V168.37H60.93L60.7884 167.477H60.7294C60.517 167.806 60.2337 168.065 59.8561 168.241C59.4902 168.418 59.0654 168.5 58.5933 168.5C57.7791 168.5 57.1654 168.312 56.7523 167.924C56.3393 167.535 56.1387 166.912 56.1387 166.065V161.678H57.1654H57.1772Z" fill="#3B8B87"/>
<path d="M67.0077 161.548C67.3027 161.548 67.5742 161.572 67.8102 161.619L67.6686 162.56C67.3854 162.501 67.1493 162.466 66.9369 162.466C66.394 162.466 65.922 162.689 65.5444 163.124C65.1549 163.56 64.9661 164.113 64.9661 164.771V168.37H63.9512V161.666H64.7891L64.9071 162.913H64.9543C65.2021 162.478 65.5089 162.136 65.8512 161.901C66.2052 161.666 66.5829 161.548 67.0077 161.548Z" fill="#3B8B87"/>
<path d="M73.3691 168.37H68.4951V167.677L72.1653 162.454H68.7193V161.666H73.2746V162.454L69.6516 167.582H73.3691V168.37Z" fill="#3B8B87"/>
<path d="M79.0803 168.371L78.8797 167.418H78.8325C78.502 167.842 78.1598 168.124 77.8294 168.277C77.4989 168.43 77.0859 168.5 76.5784 168.5C75.9175 168.5 75.3865 168.324 75.0088 167.983C74.6312 167.642 74.4424 167.148 74.4424 166.524C74.4424 165.171 75.5281 164.466 77.6995 164.395L78.8443 164.36V163.948C78.8443 163.419 78.7263 163.031 78.502 162.784C78.2778 162.537 77.912 162.407 77.4163 162.407C76.8616 162.407 76.2244 162.584 75.5163 162.925L75.1977 162.149C75.5281 161.972 75.8939 161.831 76.2834 161.725C76.6728 161.619 77.0741 161.572 77.4753 161.572C78.2778 161.572 78.8679 161.749 79.2573 162.102C79.6468 162.454 79.8356 163.031 79.8356 163.807V168.383H79.0803V168.371ZM76.779 167.653C77.4163 167.653 77.912 167.477 78.2778 167.136C78.6436 166.795 78.8207 166.301 78.8207 165.677V165.066L77.8058 165.113C76.9915 165.136 76.4132 165.266 76.0592 165.489C75.7051 165.713 75.5163 166.054 75.5163 166.524C75.5163 166.889 75.6225 167.171 75.8467 167.359C76.071 167.547 76.3778 167.642 76.779 167.642V167.653Z" fill="#3B8B87"/>
<path d="M86.0666 168.371L85.866 167.418H85.8188C85.4884 167.842 85.1461 168.124 84.8157 168.277C84.4853 168.43 84.0722 168.5 83.5647 168.5C82.9039 168.5 82.3728 168.324 81.9952 167.983C81.6175 167.642 81.4287 167.148 81.4287 166.524C81.4287 165.171 82.5144 164.466 84.6859 164.395L85.8306 164.36V163.948C85.8306 163.419 85.7126 163.031 85.4884 162.784C85.2641 162.537 84.8983 162.407 84.4026 162.407C83.848 162.407 83.2107 162.584 82.5026 162.925L82.184 162.149C82.5144 161.972 82.8803 161.831 83.2697 161.725C83.6592 161.619 84.0604 161.572 84.4616 161.572C85.2641 161.572 85.8542 161.749 86.2436 162.102C86.6331 162.454 86.8219 163.031 86.8219 163.807V168.383H86.0666V168.371ZM83.7654 167.653C84.4026 167.653 84.8983 167.477 85.2641 167.136C85.63 166.795 85.807 166.301 85.807 165.677V165.066L84.7921 165.113C83.9778 165.136 83.3995 165.266 83.0455 165.489C82.6915 165.713 82.5026 166.054 82.5026 166.524C82.5026 166.889 82.6088 167.171 82.8331 167.359C83.0573 167.547 83.3641 167.642 83.7654 167.642V167.653Z" fill="#3B8B87"/>
<path d="M97.4905 168.37V164.007C97.4905 163.477 97.3725 163.077 97.1483 162.807C96.9241 162.536 96.5582 162.407 96.0862 162.407C95.4489 162.407 94.9886 162.583 94.6818 162.948C94.375 163.313 94.2334 163.866 94.2334 164.618V168.359H93.2184V163.995C93.2184 163.466 93.1004 163.066 92.8762 162.795C92.652 162.525 92.2861 162.395 91.8023 162.395C91.165 162.395 90.693 162.583 90.3979 162.972C90.1029 163.348 89.9495 163.983 89.9495 164.842V168.359H88.9346V161.654H89.7607L89.9259 162.572H89.9731C90.1619 162.242 90.4333 161.995 90.7874 161.807C91.1414 161.619 91.5309 161.537 91.9675 161.537C93.0178 161.537 93.7023 161.913 94.0327 162.678H94.0799C94.2806 162.325 94.5756 162.054 94.9532 161.842C95.3309 161.642 95.7675 161.537 96.2514 161.537C97.0067 161.537 97.5849 161.737 97.9626 162.125C98.3402 162.513 98.529 163.136 98.529 163.995V168.37H97.5141H97.4905Z" fill="#3B8B87"/>
<path d="M108.454 167.477H108.395C107.923 168.159 107.214 168.5 106.282 168.5C105.397 168.5 104.713 168.206 104.229 167.606C103.745 167.006 103.497 166.159 103.497 165.054C103.497 163.948 103.745 163.089 104.229 162.478C104.724 161.866 105.409 161.56 106.282 161.56C107.155 161.56 107.899 161.89 108.383 162.548H108.465L108.418 162.066L108.395 161.596V158.867H109.41V168.382H108.583L108.454 167.488V167.477ZM106.412 167.653C107.108 167.653 107.616 167.465 107.923 167.089C108.241 166.712 108.395 166.1 108.395 165.265V165.054C108.395 164.101 108.241 163.43 107.923 163.019C107.604 162.619 107.096 162.407 106.4 162.407C105.798 162.407 105.35 162.642 105.031 163.101C104.713 163.56 104.559 164.219 104.559 165.065C104.559 165.912 104.713 166.571 105.031 167.006C105.35 167.441 105.81 167.665 106.412 167.665V167.653Z" fill="#3B8B87"/>
<path d="M117.376 165.018C117.376 166.112 117.105 166.959 116.55 167.582C115.996 168.194 115.228 168.5 114.261 168.5C113.659 168.5 113.128 168.359 112.656 168.076C112.195 167.794 111.83 167.394 111.57 166.865C111.31 166.336 111.192 165.724 111.192 165.018C111.192 163.924 111.464 163.077 112.018 162.466C112.561 161.854 113.328 161.548 114.296 161.548C115.264 161.548 115.984 161.854 116.538 162.478C117.093 163.101 117.364 163.948 117.364 165.006L117.376 165.018ZM112.255 165.018C112.255 165.877 112.432 166.524 112.774 166.971C113.116 167.418 113.623 167.641 114.284 167.641C114.945 167.641 115.453 167.418 115.807 166.971C116.149 166.524 116.326 165.865 116.326 165.006C116.326 164.148 116.149 163.513 115.807 163.066C115.464 162.619 114.945 162.407 114.273 162.407C113.6 162.407 113.104 162.63 112.762 163.066C112.42 163.501 112.255 164.148 112.255 165.018Z" fill="#3B8B87"/>
<path d="M124.964 165.018C124.964 166.112 124.693 166.959 124.138 167.582C123.583 168.194 122.816 168.5 121.849 168.5C121.247 168.5 120.716 168.359 120.244 168.076C119.783 167.794 119.418 167.394 119.158 166.865C118.898 166.336 118.78 165.724 118.78 165.018C118.78 163.924 119.052 163.077 119.606 162.466C120.149 161.854 120.916 161.548 121.884 161.548C122.852 161.548 123.572 161.854 124.126 162.478C124.681 163.101 124.952 163.948 124.952 165.006L124.964 165.018ZM119.842 165.018C119.842 165.877 120.019 166.524 120.362 166.971C120.704 167.418 121.211 167.641 121.872 167.641C122.533 167.641 123.041 167.418 123.395 166.971C123.737 166.524 123.914 165.865 123.914 165.006C123.914 164.148 123.737 163.513 123.395 163.066C123.052 162.619 122.533 162.407 121.86 162.407C121.188 162.407 120.692 162.63 120.35 163.066C120.008 163.501 119.842 164.148 119.842 165.018Z" fill="#3B8B87"/>
<path d="M129.826 161.548C130.121 161.548 130.393 161.572 130.629 161.619L130.487 162.56C130.204 162.501 129.968 162.466 129.755 162.466C129.212 162.466 128.74 162.689 128.363 163.124C127.973 163.56 127.784 164.113 127.784 164.771V168.37H126.77V161.666H127.607L127.725 162.913H127.773C128.02 162.478 128.327 162.136 128.67 161.901C129.024 161.666 129.401 161.548 129.826 161.548Z" fill="#3B8B87"/>
<path d="M137.32 167.665C137.497 167.665 137.674 167.653 137.839 167.63C138.005 167.606 138.134 167.571 138.241 167.548V168.324C138.134 168.371 137.969 168.418 137.757 168.453C137.544 168.488 137.344 168.5 137.179 168.5C135.88 168.5 135.231 167.818 135.231 166.454V162.466H134.264V161.972L135.231 161.549L135.656 160.114H136.246V161.666H138.194V162.454H136.246V166.395C136.246 166.795 136.341 167.112 136.53 167.324C136.718 167.536 136.99 167.653 137.32 167.653V167.665Z" fill="#3B8B87"/>
<path d="M142.418 168.5C141.427 168.5 140.636 168.194 140.07 167.594C139.491 166.994 139.208 166.147 139.208 165.077C139.208 164.007 139.479 163.136 140.01 162.501C140.542 161.866 141.261 161.548 142.158 161.548C142.996 161.548 143.669 161.819 144.165 162.372C144.66 162.925 144.896 163.654 144.896 164.559V165.206H140.27C140.294 165.994 140.494 166.594 140.872 166.994C141.25 167.394 141.781 167.606 142.465 167.606C143.185 167.606 143.905 167.453 144.613 167.159V168.065C144.259 168.218 143.917 168.335 143.586 168.394C143.268 168.465 142.878 168.488 142.418 168.488V168.5ZM142.147 162.407C141.604 162.407 141.179 162.583 140.86 162.936C140.542 163.289 140.353 163.771 140.294 164.395H143.811C143.811 163.76 143.669 163.266 143.386 162.925C143.102 162.583 142.689 162.419 142.158 162.419L142.147 162.407Z" fill="#3B8B87"/>
<path d="M154.479 167.477H154.42C153.948 168.159 153.24 168.5 152.308 168.5C151.422 168.5 150.738 168.206 150.254 167.606C149.77 167.006 149.522 166.159 149.522 165.054C149.522 163.948 149.77 163.089 150.254 162.478C150.75 161.866 151.434 161.56 152.308 161.56C153.181 161.56 153.924 161.89 154.408 162.548H154.491L154.444 162.066L154.42 161.596V158.867H155.435V168.382H154.609L154.479 167.488V167.477ZM152.437 167.653C153.134 167.653 153.641 167.465 153.948 167.089C154.267 166.712 154.42 166.1 154.42 165.265V165.054C154.42 164.101 154.267 163.43 153.948 163.019C153.629 162.619 153.122 162.407 152.426 162.407C151.824 162.407 151.375 162.642 151.057 163.101C150.738 163.56 150.585 164.219 150.585 165.065C150.585 165.912 150.738 166.571 151.057 167.006C151.375 167.441 151.836 167.665 152.437 167.665V167.653Z" fill="#3B8B87"/>
<path d="M160.438 168.5C159.447 168.5 158.656 168.194 158.09 167.594C157.512 166.994 157.229 166.147 157.229 165.077C157.229 164.007 157.5 163.136 158.031 162.501C158.562 161.866 159.282 161.548 160.179 161.548C161.017 161.548 161.689 161.819 162.185 162.372C162.681 162.925 162.917 163.654 162.917 164.559V165.206H158.291C158.314 165.994 158.515 166.594 158.893 166.994C159.27 167.394 159.801 167.606 160.486 167.606C161.206 167.606 161.925 167.453 162.634 167.159V168.065C162.279 168.218 161.937 168.335 161.607 168.394C161.288 168.465 160.899 168.488 160.438 168.488V168.5ZM160.167 162.407C159.624 162.407 159.199 162.583 158.881 162.936C158.562 163.289 158.373 163.771 158.314 164.395H161.831C161.831 163.76 161.689 163.266 161.406 162.925C161.123 162.583 160.71 162.419 160.179 162.419L160.167 162.407Z" fill="#3B8B87"/>
<path d="M165.667 168.371H164.652V158.855H165.667V168.371Z" fill="#3B8B87"/>
<path d="M170.671 168.5C169.68 168.5 168.889 168.194 168.322 167.594C167.744 166.994 167.461 166.147 167.461 165.077C167.461 164.007 167.732 163.136 168.263 162.501C168.794 161.866 169.514 161.548 170.411 161.548C171.249 161.548 171.922 161.819 172.417 162.372C172.913 162.925 173.149 163.654 173.149 164.559V165.206H168.523C168.547 165.994 168.747 166.594 169.125 166.994C169.503 167.394 170.034 167.606 170.718 167.606C171.438 167.606 172.158 167.453 172.866 167.159V168.065C172.512 168.218 172.17 168.335 171.839 168.394C171.521 168.465 171.131 168.488 170.671 168.488V168.5ZM170.399 162.407C169.857 162.407 169.432 162.583 169.113 162.936C168.794 163.289 168.606 163.771 168.547 164.395H172.063C172.063 163.76 171.922 163.266 171.639 162.925C171.355 162.583 170.942 162.419 170.411 162.419L170.399 162.407Z" fill="#3B8B87"/>
<path d="M179.475 168.37V164.03C179.475 163.489 179.345 163.077 179.097 162.807C178.849 162.536 178.46 162.407 177.929 162.407C177.221 162.407 176.713 162.595 176.383 162.972C176.052 163.348 175.887 163.971 175.887 164.854V168.37H174.872V161.666H175.698L175.863 162.583H175.911C176.123 162.254 176.406 161.995 176.784 161.819C177.162 161.642 177.575 161.548 178.047 161.548C178.861 161.548 179.463 161.748 179.876 162.136C180.289 162.525 180.49 163.148 180.49 164.007V168.382H179.475V168.37Z" fill="#3B8B87"/>
</g>
<defs>
<clipPath id="clip0_2942_1235">
<rect width="220" height="168" fill="white" transform="translate(0 0.5)"/>
</clipPath>
</defs>
</svg>
