<svg width="164" height="41" viewBox="0 0 164 41" fill="none" xmlns="http://www.w3.org/2000/svg">
<g clip-path="url(#clip0_2494_2434)">
<path d="M31.959 14.2458C32.8709 14.2458 33.6057 14.9905 33.6057 15.8947V22.7472L39.1653 22.7827H39.8204C39.9266 21.9583 39.9798 21.125 39.9798 20.2651C39.9798 9.07762 30.9144 0 19.7332 0C10.6501 0 2.96578 5.99265 0.398438 14.2458H31.959Z" fill="white"/>
<path d="M39.2361 25.5751H38.6783L38.2888 23.944L33.402 23.9174C33.1187 24.4316 32.5787 24.7773 31.959 24.7773H22.8316C22.8316 21.2136 19.9456 18.3237 16.3867 18.3237C12.8279 18.3237 9.94181 21.2136 9.94181 24.7773H0C2.04502 33.8017 10.1012 40.5479 19.7331 40.5479C30.2061 40.5479 37.3858 32.9507 39.2272 25.584L39.2361 25.5751ZM16.3956 30.1051C13.4564 30.1051 11.075 27.7204 11.075 24.7773C11.075 21.8342 13.4564 19.4495 16.3956 19.4495C19.3347 19.4495 21.7162 21.8342 21.7162 24.7773C21.7162 27.7204 19.3347 30.1051 16.3956 30.1051Z" fill="white"/>
<path d="M44.8754 9.60065H51.0547C53.7637 9.60065 55.8087 9.99957 57.1809 10.7974C58.5531 11.5952 59.2348 12.9604 59.2348 14.9018C59.2348 15.7263 59.0843 16.4709 58.7833 17.1181C58.4823 17.7741 58.0396 18.3059 57.473 18.7403C56.9065 19.1747 56.1982 19.4584 55.3572 19.6179V19.7598C56.2336 19.9016 57.0127 20.1676 57.6944 20.5488C58.376 20.9299 58.9161 21.4618 59.3056 22.1622C59.6951 22.8625 59.8987 23.749 59.8987 24.8394C59.8987 26.1425 59.5889 27.2506 58.978 28.1637C58.3672 29.0768 57.4996 29.7682 56.3753 30.2381C55.251 30.7079 53.923 30.9472 52.3738 30.9472H44.8754V9.60065ZM47.8676 18.5808H51.5859C53.3033 18.5808 54.4985 18.2971 55.1536 17.7297C55.8176 17.1624 56.1451 16.3468 56.1451 15.2653C56.1451 14.1838 55.7556 13.3416 54.9677 12.8452C54.1798 12.3576 52.9315 12.1094 51.2229 12.1094H47.8676V18.5808ZM47.8676 21.0452V28.4208H51.94C53.7017 28.4208 54.9411 28.075 55.6671 27.3836C56.393 26.6921 56.756 25.7613 56.756 24.5911C56.756 23.8554 56.5966 23.2171 56.2691 22.6852C55.9415 22.1533 55.4192 21.7455 54.6844 21.4618C53.9584 21.1782 52.9758 21.0363 51.7364 21.0363H47.8765L47.8676 21.0452Z" fill="white"/>
<path d="M77.64 14.8576V30.9473H75.294L74.8867 28.7399H74.7274C74.3998 29.2984 73.966 29.7594 73.4437 30.1229C72.9214 30.4952 72.3282 30.77 71.682 30.9562C71.0269 31.1423 70.3363 31.231 69.6104 31.231C68.3798 31.231 67.3264 31.0271 66.4676 30.6193C65.6089 30.2115 64.9538 29.5732 64.5111 28.7133C64.0685 27.8535 63.8472 26.7365 63.8472 25.3802V14.8487H66.7952V24.9635C66.7952 26.2578 67.0785 27.224 67.6362 27.8712C68.1939 28.5183 69.0527 28.8375 70.1947 28.8375C71.3367 28.8375 72.1955 28.6158 72.8594 28.1726C73.5145 27.7293 73.9837 27.0822 74.2759 26.2312C74.5592 25.3802 74.7097 24.3341 74.7097 23.1019V14.8487H77.6577L77.64 14.8576Z" fill="white"/>
<path d="M96.2842 14.8576V30.9473H93.9381L93.5309 28.7399H93.3715C93.044 29.2984 92.6102 29.7594 92.0879 30.1229C91.5656 30.4952 90.9724 30.77 90.3261 30.9562C89.671 31.1423 88.9805 31.231 88.2546 31.231C87.024 31.231 85.9705 31.0271 85.1118 30.6193C84.2531 30.2115 83.5979 29.5732 83.1553 28.7133C82.7127 27.8535 82.4913 26.7365 82.4913 25.3802V14.8487H85.4394V24.9635C85.4394 26.2578 85.7226 27.224 86.2804 27.8712C86.8381 28.5183 87.6968 28.8375 88.8389 28.8375C89.9809 28.8375 90.8396 28.6158 91.5036 28.1726C92.1587 27.7293 92.6279 27.0822 92.92 26.2312C93.2033 25.3802 93.3538 24.3341 93.3538 23.1019V14.8487H96.3019L96.2842 14.8576Z" fill="white"/>
<path d="M109.015 14.565C109.307 14.565 109.625 14.5827 109.962 14.6182C110.298 14.6537 110.59 14.698 110.838 14.7423L110.528 17.4727C110.298 17.4106 110.024 17.3663 109.723 17.3308C109.422 17.2954 109.13 17.2688 108.873 17.2688C108.253 17.2688 107.66 17.384 107.094 17.6234C106.527 17.8627 106.031 18.1996 105.606 18.6428C105.181 19.0861 104.845 19.6268 104.597 20.2651C104.349 20.9034 104.234 21.6303 104.234 22.4459V30.9561H101.286V14.8575H103.65L104.004 17.7652H104.137C104.464 17.1801 104.871 16.6482 105.341 16.1607C105.81 15.6731 106.359 15.2919 106.97 14.9994C107.58 14.7068 108.271 14.565 109.015 14.565Z" fill="white"/>
<path d="M114.194 9.60065H120.373C123.082 9.60065 125.127 9.99957 126.499 10.7974C127.871 11.5952 128.553 12.9604 128.553 14.9018C128.553 15.7263 128.403 16.4709 128.102 17.1181C127.801 17.7741 127.358 18.3059 126.791 18.7403C126.225 19.1747 125.516 19.4584 124.675 19.6179V19.7598C125.552 19.9016 126.331 20.1676 127.013 20.5488C127.694 20.9299 128.234 21.4618 128.624 22.1622C129.013 22.8625 129.217 23.749 129.217 24.8394C129.217 26.1425 128.907 27.2506 128.296 28.1637C127.685 29.0768 126.818 29.7682 125.694 30.2381C124.569 30.7079 123.241 30.9472 121.692 30.9472H114.194V9.60065ZM117.186 18.5808H120.904C122.622 18.5808 123.817 18.2971 124.472 17.7297C125.136 17.1624 125.463 16.3468 125.463 15.2653C125.463 14.1838 125.074 13.3416 124.286 12.8452C123.498 12.3576 122.25 12.1094 120.541 12.1094H117.186V18.5808ZM117.186 21.0452V28.4208H121.258C123.02 28.4208 124.259 28.075 124.985 27.3836C125.711 26.6921 126.074 25.7613 126.074 24.5911C126.074 23.8554 125.915 23.2171 125.587 22.6852C125.26 22.1533 124.737 21.7455 124.003 21.4618C123.277 21.1782 122.294 21.0363 121.055 21.0363H117.195L117.186 21.0452Z" fill="white"/>
<path d="M139.46 14.5827C141.443 14.5827 142.921 15.0259 143.904 15.9036C144.887 16.7812 145.374 18.173 145.374 20.0701V30.9472H143.275L142.709 28.6069H142.594C142.142 29.192 141.682 29.6796 141.195 30.0696C140.708 30.4597 140.15 30.7522 139.513 30.9472C138.875 31.1423 138.096 31.2398 137.185 31.2398C136.211 31.2398 135.352 31.0625 134.591 30.7168C133.829 30.371 133.236 29.8391 132.802 29.1299C132.369 28.4208 132.156 27.5254 132.156 26.435C132.156 24.795 132.785 23.5628 134.033 22.7118C135.281 21.8608 137.185 21.3998 139.734 21.3289L142.505 21.2136V20.3094C142.505 19.0506 142.222 18.1641 141.664 17.6499C141.106 17.1358 140.327 16.8787 139.327 16.8787C138.504 16.8787 137.707 17.0028 136.946 17.2333C136.184 17.4726 135.458 17.7563 134.759 18.0843L133.829 15.9568C134.591 15.5667 135.449 15.2387 136.414 14.9816C137.379 14.7157 138.397 14.5916 139.451 14.5916L139.46 14.5827ZM142.479 23.1373L140.23 23.2437C138.371 23.3146 137.069 23.6249 136.317 24.1745C135.564 24.7241 135.184 25.4954 135.184 26.4705C135.184 27.3304 135.441 27.9509 135.954 28.3498C136.467 28.7488 137.149 28.9526 137.999 28.9526C139.3 28.9526 140.372 28.5892 141.213 27.8534C142.054 27.1176 142.47 26.0272 142.47 24.5911V23.1462L142.479 23.1373Z" fill="white"/>
<path d="M153.182 8.22662V19.618C153.182 20.0701 153.164 20.5754 153.129 21.1427C153.093 21.7101 153.067 22.2331 153.031 22.7118H153.137C153.359 22.4193 153.66 22.0381 154.032 21.5594C154.403 21.0807 154.74 20.6818 155.032 20.3449L160.167 14.8575H163.549L157.104 21.7633L164 30.9473H160.53L155.121 23.6072L153.182 25.3269V30.9473H150.269V8.22662H153.182Z" fill="white"/>
</g>
<defs>
<clipPath id="clip0_2494_2434">
<rect width="164" height="41" fill="white"/>
</clipPath>
</defs>
</svg>