<svg width="176" height="44" viewBox="0 0 176 44" fill="none" xmlns="http://www.w3.org/2000/svg">
<path d="M34.2976 15.2882C35.2762 15.2882 36.0648 16.0874 36.0648 17.0577V24.4117L42.0312 24.4497H42.7342C42.8482 23.565 42.9053 22.6707 42.9053 21.7479C42.9053 9.74184 33.1766 0 21.1772 0C11.4295 0 3.18293 6.43113 0.427734 15.2882H34.2976Z" fill="#3B8B87"/>
<path d="M42.107 27.4466H41.5084L41.0904 25.6961L35.846 25.6676C35.542 26.2194 34.9625 26.5904 34.2974 26.5904H24.5022C24.5022 22.766 21.405 19.6646 17.5857 19.6646C13.7665 19.6646 10.6693 22.766 10.6693 26.5904H0C2.19466 36.2751 10.8403 43.5149 21.177 43.5149C32.4163 43.5149 40.1213 35.3618 42.0975 27.4561L42.107 27.4466ZM17.5952 32.308C14.441 32.308 11.8853 29.7489 11.8853 26.5904C11.8853 23.4319 14.441 20.8728 17.5952 20.8728C20.7495 20.8728 23.3052 23.4319 23.3052 26.5904C23.3052 29.7489 20.7495 32.308 17.5952 32.308Z" fill="#ED7B45"/>
<path d="M48.1587 10.3032H54.7902C57.6974 10.3032 59.892 10.7313 61.3646 11.5875C62.8372 12.4438 63.5688 13.9088 63.5688 15.9923C63.5688 16.8771 63.4073 17.6762 63.0843 18.3707C62.7612 19.0747 62.2862 19.6455 61.6782 20.1117C61.0701 20.5778 60.3101 20.8822 59.4075 21.0535V21.2057C60.3481 21.3579 61.1841 21.6433 61.9157 22.0524C62.6472 22.4615 63.2268 23.0323 63.6448 23.7839C64.0628 24.5354 64.2813 25.4868 64.2813 26.657C64.2813 28.0554 63.9488 29.2446 63.2933 30.2245C62.6377 31.2044 61.7067 31.9465 60.5001 32.4507C59.2935 32.9549 57.8684 33.2118 56.2058 33.2118H48.1587V10.3032ZM51.3699 19.9404H55.3602C57.2033 19.9404 58.4859 19.636 59.189 19.0271C59.9015 18.4183 60.253 17.543 60.253 16.3824C60.253 15.2217 59.835 14.3179 58.9895 13.7852C58.1439 13.2619 56.8043 12.9955 54.9707 12.9955H51.3699V19.9404ZM51.3699 22.5852V30.5004H55.7402C57.6309 30.5004 58.961 30.1294 59.74 29.3873C60.5191 28.6453 60.9086 27.6464 60.9086 26.3906C60.9086 25.601 60.7376 24.916 60.3861 24.3452C60.0345 23.7744 59.474 23.3367 58.6854 23.0323C57.9064 22.7279 56.8518 22.5757 55.5217 22.5757H51.3794L51.3699 22.5852Z" fill="#3B8B87"/>
<path d="M83.3206 15.9448V33.2118H80.8029L80.3659 30.843H80.1949C79.8434 31.4423 79.3778 31.937 78.8173 32.3271C78.2567 32.7267 77.6202 33.0216 76.9267 33.2214C76.2236 33.4211 75.4825 33.5163 74.7035 33.5163C73.3829 33.5163 72.2523 33.2975 71.3308 32.8598C70.4092 32.4222 69.7061 31.7372 69.2311 30.8144C68.7561 29.8916 68.5186 28.6929 68.5186 27.2374V15.9353H71.6823V26.7902C71.6823 28.1792 71.9863 29.2162 72.5848 29.9107C73.1834 30.6051 74.1049 30.9476 75.3305 30.9476C76.5561 30.9476 77.4777 30.7098 78.1902 30.2341C78.8933 29.7584 79.3968 29.064 79.7103 28.1507C80.0144 27.2374 80.1759 26.1148 80.1759 24.7924V15.9353H83.3396L83.3206 15.9448Z" fill="#3B8B87"/>
<path d="M103.329 15.9448V33.2118H100.811L100.374 30.843H100.203C99.8517 31.4423 99.3861 31.937 98.8256 32.3271C98.265 32.7267 97.6285 33.0216 96.935 33.2214C96.2319 33.4211 95.4909 33.5163 94.7118 33.5163C93.3912 33.5163 92.2606 33.2975 91.3391 32.8598C90.4175 32.4222 89.7144 31.7372 89.2394 30.8144C88.7644 29.8916 88.5269 28.6929 88.5269 27.2374V15.9353H91.6906V26.7902C91.6906 28.1792 91.9946 29.2162 92.5931 29.9107C93.1917 30.6051 94.1133 30.9476 95.3388 30.9476C96.5644 30.9476 97.486 30.7098 98.1985 30.2341C98.9016 29.7584 99.4051 29.064 99.7186 28.1507C100.023 27.2374 100.184 26.1148 100.184 24.7924V15.9353H103.348L103.329 15.9448Z" fill="#3B8B87"/>
<path d="M116.991 15.6309C117.304 15.6309 117.646 15.6499 118.007 15.6879C118.368 15.726 118.682 15.7736 118.948 15.8211L118.615 18.7513C118.368 18.6847 118.074 18.6371 117.751 18.5991C117.428 18.561 117.114 18.5325 116.839 18.5325C116.174 18.5325 115.537 18.6562 114.929 18.913C114.321 19.1699 113.789 19.5314 113.333 20.0071C112.877 20.4828 112.516 21.0631 112.25 21.748C111.984 22.433 111.86 23.2131 111.86 24.0884V33.2213H108.697V15.9448H111.233L111.613 19.0652H111.756C112.108 18.4373 112.545 17.8665 113.048 17.3433C113.552 16.82 114.141 16.411 114.796 16.097C115.452 15.7831 116.193 15.6309 116.991 15.6309Z" fill="#3B8B87"/>
<path d="M122.549 10.3032H129.18C132.088 10.3032 134.282 10.7313 135.755 11.5875C137.227 12.4438 137.959 13.9088 137.959 15.9923C137.959 16.8771 137.797 17.6762 137.474 18.3707C137.151 19.0747 136.676 19.6455 136.068 20.1117C135.46 20.5778 134.7 20.8822 133.798 21.0535V21.2057C134.738 21.3579 135.574 21.6433 136.306 22.0524C137.037 22.4615 137.617 23.0323 138.035 23.7839C138.453 24.5354 138.671 25.4868 138.671 26.657C138.671 28.0554 138.339 29.2446 137.683 30.2245C137.028 31.2044 136.097 31.9465 134.89 32.4507C133.684 32.9549 132.259 33.2118 130.596 33.2118H122.549V10.3032ZM125.76 19.9404H129.75C131.593 19.9404 132.876 19.636 133.579 19.0271C134.292 18.4183 134.643 17.543 134.643 16.3824C134.643 15.2217 134.225 14.3179 133.38 13.7852C132.534 13.2619 131.194 12.9955 129.361 12.9955H125.76V19.9404ZM125.76 22.5852V30.5004H130.13C132.021 30.5004 133.351 30.1294 134.13 29.3873C134.909 28.6453 135.299 27.6464 135.299 26.3906C135.299 25.601 135.128 24.916 134.776 24.3452C134.425 23.7744 133.864 23.3367 133.076 23.0323C132.297 22.7279 131.242 22.5757 129.912 22.5757H125.77L125.76 22.5852Z" fill="#ED7B45"/>
<path d="M149.664 15.6499C151.792 15.6499 153.379 16.1256 154.433 17.0674C155.488 18.0093 156.01 19.5029 156.01 21.5388V33.2118H153.759L153.15 30.7003H153.027C152.542 31.3282 152.048 31.8514 151.526 32.27C151.003 32.6886 150.405 33.0026 149.721 33.2118C149.037 33.4211 148.201 33.5258 147.222 33.5258C146.177 33.5258 145.255 33.3355 144.438 32.9645C143.621 32.5935 142.985 32.0227 142.519 31.2616C142.054 30.5005 141.826 29.5396 141.826 28.3695C141.826 26.6095 142.5 25.2871 143.84 24.3738C145.179 23.4605 147.222 22.9658 149.958 22.8897L152.932 22.766V21.7956C152.932 20.4447 152.628 19.4934 152.029 18.9416C151.431 18.3898 150.595 18.1139 149.521 18.1139C148.638 18.1139 147.783 18.2471 146.966 18.4944C146.148 18.7513 145.369 19.0557 144.619 19.4077L143.621 17.1245C144.438 16.7059 145.36 16.3539 146.396 16.078C147.431 15.7926 148.524 15.6594 149.654 15.6594L149.664 15.6499ZM152.903 24.8304L150.49 24.9446C148.495 25.0207 147.099 25.3537 146.291 25.9435C145.483 26.5334 145.075 27.361 145.075 28.4075C145.075 29.3303 145.35 29.9963 145.901 30.4244C146.453 30.8525 147.184 31.0713 148.096 31.0713C149.493 31.0713 150.642 30.6813 151.545 29.8916C152.447 29.102 152.894 27.9318 152.894 26.3907V24.84L152.903 24.8304Z" fill="#ED7B45"/>
<path d="M164.39 8.82861V21.0535C164.39 21.5387 164.371 22.0809 164.333 22.6898C164.295 23.2987 164.266 23.86 164.228 24.3737H164.342C164.58 24.0597 164.903 23.6507 165.302 23.1369C165.701 22.6232 166.062 22.1951 166.376 21.8336L171.886 15.9447H175.515L168.599 23.3557L176 33.2118H172.275L166.471 25.3346L164.39 27.1802V33.2118H161.264V8.82861H164.39Z" fill="#ED7B45"/>
</svg>
